<svg width="507" height="260" viewBox="0 0 507 260" fill="none" xmlns="http://www.w3.org/2000/svg">
<g filter="url(#filter0_d_15_101)">
<path d="M4.65909 95L1.70163 94.4966L1.1053 98H4.65909V95ZM6.84091 82.1818L4.60647 80.18L4.02873 80.8249L3.88345 81.6784L6.84091 82.1818ZM62.3864 20.1818L64.6208 22.1836L69.1019 17.1818H62.3864V20.1818ZM17.0682 20.1818L14.1102 19.6815L13.5181 23.1818H17.0682V20.1818ZM20.1591 1.90909V-1.09091H17.6239L17.2011 1.40873L20.1591 1.90909ZM93.7955 1.90909L96.7546 2.40228L97.3368 -1.09091H93.7955V1.90909ZM91.6591 14.7273L93.8919 16.7309L94.4748 16.0813L94.6183 15.2205L91.6591 14.7273ZM36.0227 76.7273L33.7899 74.7236L29.2999 79.7273H36.0227V76.7273ZM81.3864 76.7273L84.3443 77.2276L84.9364 73.7273H81.3864V76.7273ZM78.2955 95V98H80.8306L81.2534 95.5004L78.2955 95ZM7.61655 95.5034L9.79837 82.6852L3.88345 81.6784L1.70163 94.4966L7.61655 95.5034ZM9.07535 84.1836L64.6208 22.1836L60.1519 18.18L4.60647 80.18L9.07535 84.1836ZM62.3864 17.1818H17.0682V23.1818H62.3864V17.1818ZM20.0262 20.6822L23.1171 2.40944L17.2011 1.40873L14.1102 19.6815L20.0262 20.6822ZM20.1591 4.90909H93.7955V-1.09091H20.1591V4.90909ZM90.8363 1.41589L88.6999 14.2341L94.6183 15.2205L96.7546 2.40228L90.8363 1.41589ZM89.4263 12.7236L33.7899 74.7236L38.2555 78.7309L93.8919 16.7309L89.4263 12.7236ZM36.0227 79.7273H81.3864V73.7273H36.0227V79.7273ZM78.4284 76.2269L75.3375 94.4996L81.2534 95.5004L84.3443 77.2276L78.4284 76.2269ZM78.2955 92H4.65909V98H78.2955V92ZM130.057 1.90909L133.016 2.40041L133.596 -1.09091H130.057V1.90909ZM114.602 95V98H117.145L117.562 95.4913L114.602 95ZM92.1023 95L89.1428 94.5087L88.5632 98H92.1023V95ZM107.557 1.90909V-1.09091H105.014L104.597 1.41777L107.557 1.90909ZM127.097 1.41777L111.643 94.5087L117.562 95.4913L133.016 2.40041L127.097 1.41777ZM114.602 92H92.1023V98H114.602V92ZM95.0618 95.4913L110.516 2.40041L104.597 1.41777L89.1428 94.5087L95.0618 95.4913ZM107.557 4.90909H130.057V-1.09091H107.557V4.90909ZM200.227 32.3182L197.241 32.6026L197.499 35.3182H200.227V32.3182ZM198.955 27.2727L196.218 28.5015L196.223 28.5121L196.227 28.5227L198.955 27.2727ZM191.955 21.1818L191.037 24.0379L191.06 24.0454L191.083 24.0525L191.955 21.1818ZM173.591 23.6364L175.079 26.2411L173.591 23.6364ZM163.909 33.1818L166.442 34.7901L166.447 34.7817L163.909 33.1818ZM158.5 48.3182L155.539 47.8348L155.539 47.8372L158.5 48.3182ZM158.409 63.5909L155.477 64.2238L155.479 64.2339L155.481 64.2439L158.409 63.5909ZM186.227 74.5455L187.387 77.3123L187.398 77.3077L187.409 77.3029L186.227 74.5455ZM193.955 68.7727L191.618 66.8917L191.611 66.9004L191.604 66.9091L193.955 68.7727ZM197.727 60L198.087 57.0217L195.202 56.6729L194.762 59.5458L197.727 60ZM201.864 60.5V63.5L202.224 57.5217L201.864 60.5ZM179.227 60.5L176.268 60.0081L175.688 63.5H179.227V60.5ZM181.955 44.0909V41.0909H179.412L178.995 43.599L181.955 44.0909ZM222.045 44.0909L225.005 44.5823L225.585 41.0909H222.045V44.0909ZM220 56.4091L217.041 55.9177L217.039 55.9246L220 56.4091ZM211.182 77.8182L208.794 76.0026L208.788 76.0104L211.182 77.8182ZM194.364 91.5L193.081 88.788L193.076 88.7903L194.364 91.5ZM149.909 90.5L148.307 93.0362L149.909 90.5ZM136.909 74.0455L134.087 75.062L134.088 75.0659L136.909 74.0455ZM135.455 48.5909L132.495 48.0977L132.494 48.1066L135.455 48.5909ZM142.227 28.2727L139.6 26.8249L139.597 26.8296L142.227 28.2727ZM154.227 13.1818L152.263 10.9143L152.256 10.9205L154.227 13.1818ZM170 3.81818L168.963 1.00315H168.963L170 3.81818ZM220.909 19.5455L218.13 20.6746L218.133 20.6839L218.137 20.6931L220.909 19.5455ZM223 32.3182V35.3182H225.866L225.997 32.4553L223 32.3182ZM203.214 32.0338C203.006 29.855 202.513 27.8361 201.682 26.0228L196.227 28.5227C196.73 29.6184 197.085 30.9632 197.241 32.6026L203.214 32.0338ZM201.691 26.044C200.862 24.1964 199.709 22.5898 198.228 21.2643L194.227 25.7357C195.048 26.4708 195.714 27.3793 196.218 28.5015L201.691 26.044ZM198.228 21.2643C196.706 19.9025 194.879 18.9345 192.826 18.3112L191.083 24.0525C192.424 24.4594 193.446 25.0368 194.227 25.7357L198.228 21.2643ZM192.873 18.3257C190.814 17.664 188.523 17.3636 186.045 17.3636V23.3636C188.053 23.3636 189.701 23.6087 191.037 24.0379L192.873 18.3257ZM186.045 17.3636C181.049 17.3636 176.383 18.5855 172.102 21.0316L175.079 26.2411C178.435 24.3236 182.072 23.3636 186.045 23.3636V17.3636ZM172.102 21.0316C167.807 23.4863 164.237 27.0366 161.371 31.5819L166.447 34.7817C168.854 30.9634 171.739 28.15 175.079 26.2411L172.102 21.0316ZM161.377 31.5736C158.48 36.1347 156.56 41.5825 155.539 47.8348L161.461 48.8016C162.379 43.175 164.065 38.532 166.442 34.7901L161.377 31.5736ZM155.539 47.8372C154.531 54.0386 154.464 59.5298 155.477 64.2238L161.342 62.958C160.536 59.2277 160.529 54.5372 161.461 48.7992L155.539 47.8372ZM155.481 64.2439C156.539 68.9885 158.725 72.8645 162.193 75.5871L165.898 70.8674C163.73 69.1658 162.158 66.6176 161.337 62.9379L155.481 64.2439ZM162.193 75.5871C165.678 78.3222 170.119 79.5455 175.227 79.5455V73.5455C171.063 73.5455 168.05 72.5566 165.898 70.8674L162.193 75.5871ZM175.227 79.5455C179.698 79.5455 183.771 78.8275 187.387 77.3123L185.068 71.7786C182.32 72.9301 179.06 73.5455 175.227 73.5455V79.5455ZM187.409 77.3029C191.006 75.7614 193.999 73.5467 196.306 70.6363L191.604 66.9091C189.971 68.9685 187.812 70.6022 185.046 71.788L187.409 77.3029ZM196.292 70.6538C198.645 67.7294 200.103 64.3043 200.693 60.4542L194.762 59.5458C194.321 62.423 193.264 64.8464 191.618 66.8917L196.292 70.6538ZM197.367 62.9783L201.504 63.4783L202.224 57.5217L198.087 57.0217L197.367 62.9783ZM201.864 57.5H179.227V63.5H201.864V57.5ZM182.187 60.9919L184.914 44.5828L178.995 43.599L176.268 60.0081L182.187 60.9919ZM181.955 47.0909H222.045V41.0909H181.955V47.0909ZM219.086 43.5995L217.041 55.9177L222.959 56.9005L225.005 44.5823L219.086 43.5995ZM217.039 55.9246C215.744 63.8387 212.975 70.5024 208.794 76.0026L213.57 79.6337C218.419 73.2552 221.528 65.6462 222.961 56.8936L217.039 55.9246ZM208.788 76.0104C204.595 81.5631 199.37 85.8134 193.081 88.788L195.646 94.212C202.812 90.8229 208.799 85.9521 213.576 79.626L208.788 76.0104ZM193.076 88.7903C186.813 91.7662 179.909 93.2727 172.318 93.2727V99.2727C180.728 99.2727 188.521 97.5974 195.651 94.2097L193.076 88.7903ZM172.318 93.2727C163.907 93.2727 157.024 91.4468 151.512 87.9638L148.307 93.0362C154.976 97.2502 163.032 99.2727 172.318 99.2727V93.2727ZM151.512 87.9638C146.014 84.4903 142.092 79.554 139.73 73.025L134.088 75.0659C136.878 82.7793 141.622 88.8128 148.307 93.0362L151.512 87.9638ZM139.732 73.0289C137.374 66.4836 136.867 58.5404 138.415 49.0752L132.494 48.1066C130.83 58.2777 131.292 67.3043 134.087 75.062L139.732 73.0289ZM138.414 49.0841C139.639 41.732 141.799 35.2887 144.857 29.7159L139.597 26.8296C136.17 33.0749 133.815 40.1771 132.495 48.0977L138.414 49.0841ZM144.855 29.7205C147.972 24.0635 151.757 19.3156 156.199 15.4431L152.256 10.9205C147.243 15.2905 143.028 20.6031 139.6 26.8249L144.855 29.7205ZM156.192 15.4494C160.683 11.5588 165.628 8.62608 171.037 6.63321L168.963 1.00315C162.857 3.2527 157.287 6.56238 152.263 10.9143L156.192 15.4494ZM171.037 6.63321C176.458 4.63588 182.092 3.63636 187.955 3.63636V-2.36364C181.393 -2.36364 175.057 -1.24195 168.963 1.00315L171.037 6.63321ZM187.955 3.63636C193.03 3.63636 197.566 4.36724 201.596 5.7846L203.586 0.124495C198.828 -1.54907 193.607 -2.36364 187.955 -2.36364V3.63636ZM201.596 5.7846C205.655 7.21238 209.057 9.20218 211.853 11.7267L215.874 7.27335C212.428 4.16146 208.315 1.78761 203.586 0.124495L201.596 5.7846ZM211.853 11.7267C214.64 14.243 216.725 17.2169 218.13 20.6746L223.688 18.4163C221.942 14.1165 219.33 10.3933 215.874 7.27335L211.853 11.7267ZM218.137 20.6931C219.558 24.1241 220.197 27.9375 220.003 32.1811L225.997 32.4553C226.227 27.4262 225.472 22.7243 223.681 18.3978L218.137 20.6931ZM223 29.3182H200.227V35.3182H223V29.3182ZM226.534 95L223.577 94.4966L222.98 98H226.534V95ZM228.716 82.1818L226.481 80.18L225.904 80.8249L225.758 81.6784L228.716 82.1818ZM284.261 20.1818L286.496 22.1836L290.977 17.1818H284.261V20.1818ZM238.943 20.1818L235.985 19.6815L235.393 23.1818H238.943V20.1818ZM242.034 1.90909V-1.09091H239.499L239.076 1.40873L242.034 1.90909ZM315.67 1.90909L318.63 2.40228L319.212 -1.09091H315.67V1.90909ZM313.534 14.7273L315.767 16.7309L316.35 16.0813L316.493 15.2205L313.534 14.7273ZM257.898 76.7273L255.665 74.7236L251.175 79.7273H257.898V76.7273ZM303.261 76.7273L306.219 77.2276L306.811 73.7273H303.261V76.7273ZM300.17 95V98H302.706L303.128 95.5004L300.17 95ZM229.492 95.5034L231.673 82.6852L225.758 81.6784L223.577 94.4966L229.492 95.5034ZM230.95 84.1836L286.496 22.1836L282.027 18.18L226.481 80.18L230.95 84.1836ZM284.261 17.1818H238.943V23.1818H284.261V17.1818ZM241.901 20.6822L244.992 2.40944L239.076 1.40873L235.985 19.6815L241.901 20.6822ZM242.034 4.90909H315.67V-1.09091H242.034V4.90909ZM312.711 1.41589L310.575 14.2341L316.493 15.2205L318.63 2.40228L312.711 1.41589ZM311.301 12.7236L255.665 74.7236L260.131 78.7309L315.767 16.7309L311.301 12.7236ZM257.898 79.7273H303.261V73.7273H257.898V79.7273ZM300.303 76.2269L297.212 94.4996L303.128 95.5004L306.219 77.2276L300.303 76.2269ZM300.17 92H226.534V98H300.17V92ZM334.114 95V98H336.001L336.818 96.2991L334.114 95ZM309.932 95L307.252 93.651L305.063 98H309.932V95ZM356.795 1.90909V-1.09091H354.947L354.116 0.560125L356.795 1.90909ZM386.75 1.90909L389.707 1.40232L389.28 -1.09091H386.75V1.90909ZM402.705 95V98H406.262L405.661 94.4932L402.705 95ZM378.523 95L375.555 95.4359L375.931 98H378.523V95ZM368.295 25.3636L371.264 24.9277L370.887 22.3636H368.295V25.3636ZM367.568 25.3636V22.3636H365.681L364.864 24.0645L367.568 25.3636ZM337.023 58.3636V55.3636H334.49L334.065 57.8602L337.023 58.3636ZM387.568 58.3636L390.526 58.867L391.122 55.3636H387.568V58.3636ZM384.659 75.4545V78.4545H387.192L387.617 75.9579L384.659 75.4545ZM334.114 75.4545L331.156 74.9511L330.56 78.4545H334.114V75.4545ZM334.114 92H309.932V98H334.114V92ZM312.611 96.349L359.475 3.25805L354.116 0.560125L307.252 93.651L312.611 96.349ZM356.795 4.90909H386.75V-1.09091H356.795V4.90909ZM383.793 2.41586L399.748 95.5068L405.661 94.4932L389.707 1.40232L383.793 2.41586ZM402.705 92H378.523V98H402.705V92ZM381.491 94.5641L371.264 24.9277L365.327 25.7996L375.555 95.4359L381.491 94.5641ZM368.295 22.3636H367.568V28.3636H368.295V22.3636ZM364.864 24.0645L331.41 93.7009L336.818 96.2991L370.272 26.6627L364.864 24.0645ZM337.023 61.3636H387.568V55.3636H337.023V61.3636ZM384.611 57.8602L381.702 74.9511L387.617 75.9579L390.526 58.867L384.611 57.8602ZM384.659 72.4545H334.114V78.4545H384.659V72.4545ZM337.071 75.9579L339.98 58.867L334.065 57.8602L331.156 74.9511L337.071 75.9579ZM479.852 32.3182L476.866 32.6026L477.124 35.3182H479.852V32.3182ZM478.58 27.2727L475.843 28.5015L475.848 28.5121L475.852 28.5227L478.58 27.2727ZM471.58 21.1818L470.661 24.0379L470.685 24.0454L470.708 24.0525L471.58 21.1818ZM453.216 23.6364L454.704 26.2411L453.216 23.6364ZM443.534 33.1818L446.067 34.7901L446.072 34.7817L443.534 33.1818ZM438.125 48.3182L435.164 47.8348L435.164 47.8372L438.125 48.3182ZM438.034 63.5909L435.102 64.2238L435.104 64.2339L435.106 64.2439L438.034 63.5909ZM465.852 74.5455L467.012 77.3123L467.023 77.3077L467.034 77.3029L465.852 74.5455ZM473.58 68.7727L471.243 66.8917L471.236 66.9004L471.229 66.9091L473.58 68.7727ZM477.352 60L477.712 57.0217L474.827 56.6729L474.387 59.5458L477.352 60ZM481.489 60.5V63.5L481.849 57.5217L481.489 60.5ZM458.852 60.5L455.893 60.0081L455.312 63.5H458.852V60.5ZM461.58 44.0909V41.0909H459.037L458.62 43.599L461.58 44.0909ZM501.67 44.0909L504.63 44.5823L505.21 41.0909H501.67V44.0909ZM499.625 56.4091L496.666 55.9177L496.664 55.9246L499.625 56.4091ZM490.807 77.8182L488.419 76.0026L488.413 76.0104L490.807 77.8182ZM473.989 91.5L472.706 88.788L472.701 88.7903L473.989 91.5ZM429.534 90.5L427.932 93.0362L429.534 90.5ZM416.534 74.0455L413.712 75.062L413.713 75.0659L416.534 74.0455ZM415.08 48.5909L412.12 48.0977L412.119 48.1066L415.08 48.5909ZM421.852 28.2727L419.225 26.8249L419.222 26.8296L421.852 28.2727ZM433.852 13.1818L431.888 10.9143L431.881 10.9205L433.852 13.1818ZM449.625 3.81818L448.588 1.00315L449.625 3.81818ZM500.534 19.5455L497.755 20.6746L497.758 20.6839L497.762 20.6931L500.534 19.5455ZM502.625 32.3182V35.3182H505.491L505.622 32.4553L502.625 32.3182ZM482.839 32.0338C482.631 29.855 482.138 27.8361 481.307 26.0228L475.852 28.5227C476.355 29.6184 476.71 30.9632 476.866 32.6026L482.839 32.0338ZM481.316 26.044C480.487 24.1964 479.334 22.5898 477.853 21.2643L473.852 25.7357C474.673 26.4708 475.339 27.3793 475.843 28.5015L481.316 26.044ZM477.853 21.2643C476.331 19.9025 474.504 18.9345 472.451 18.3112L470.708 24.0525C472.049 24.4594 473.071 25.0368 473.852 25.7357L477.853 21.2643ZM472.498 18.3257C470.439 17.664 468.148 17.3636 465.67 17.3636V23.3636C467.678 23.3636 469.326 23.6087 470.661 24.0379L472.498 18.3257ZM465.67 17.3636C460.674 17.3636 456.008 18.5855 451.728 21.0316L454.704 26.2411C458.06 24.3236 461.697 23.3636 465.67 23.3636V17.3636ZM451.728 21.0316C447.432 23.4863 443.862 27.0366 440.996 31.5819L446.072 34.7817C448.479 30.9634 451.364 28.15 454.704 26.2411L451.728 21.0316ZM441.002 31.5736C438.105 36.1347 436.185 41.5825 435.164 47.8348L441.086 48.8016C442.004 43.175 443.69 38.532 446.067 34.7901L441.002 31.5736ZM435.164 47.8372C434.156 54.0386 434.089 59.5298 435.102 64.2238L440.967 62.958C440.161 59.2277 440.154 54.5372 441.086 48.7992L435.164 47.8372ZM435.106 64.2439C436.164 68.9885 438.35 72.8645 441.818 75.5871L445.523 70.8674C443.355 69.1658 441.783 66.6176 440.962 62.9379L435.106 64.2439ZM441.818 75.5871C445.303 78.3222 449.744 79.5455 454.852 79.5455V73.5455C450.688 73.5455 447.675 72.5566 445.523 70.8674L441.818 75.5871ZM454.852 79.5455C459.323 79.5455 463.396 78.8275 467.012 77.3123L464.693 71.7786C461.945 72.9301 458.685 73.5455 454.852 73.5455V79.5455ZM467.034 77.3029C470.631 75.7614 473.624 73.5467 475.931 70.6363L471.229 66.9091C469.596 68.9685 467.437 70.6022 464.671 71.788L467.034 77.3029ZM475.917 70.6538C478.27 67.7294 479.728 64.3043 480.318 60.4542L474.387 59.5458C473.946 62.423 472.889 64.8464 471.243 66.8917L475.917 70.6538ZM476.992 62.9783L481.129 63.4783L481.849 57.5217L477.712 57.0217L476.992 62.9783ZM481.489 57.5H458.852V63.5H481.489V57.5ZM461.812 60.9919L464.539 44.5828L458.62 43.599L455.893 60.0081L461.812 60.9919ZM461.58 47.0909H501.67V41.0909H461.58V47.0909ZM498.711 43.5995L496.666 55.9177L502.584 56.9005L504.63 44.5823L498.711 43.5995ZM496.664 55.9246C495.369 63.8387 492.6 70.5024 488.419 76.0026L493.195 79.6337C498.044 73.2552 501.153 65.6462 502.586 56.8936L496.664 55.9246ZM488.413 76.0104C484.22 81.5631 478.995 85.8134 472.706 88.788L475.271 94.212C482.437 90.8229 488.424 85.9521 493.201 79.626L488.413 76.0104ZM472.701 88.7903C466.438 91.7662 459.534 93.2727 451.943 93.2727V99.2727C460.353 99.2727 468.146 97.5974 475.276 94.2097L472.701 88.7903ZM451.943 93.2727C443.532 93.2727 436.649 91.4468 431.137 87.9638L427.932 93.0362C434.601 97.2502 442.657 99.2727 451.943 99.2727V93.2727ZM431.137 87.9638C425.639 84.4903 421.717 79.554 419.355 73.025L413.713 75.0659C416.503 82.7793 421.247 88.8128 427.932 93.0362L431.137 87.9638ZM419.357 73.0289C416.999 66.4836 416.492 58.5404 418.04 49.0752L412.119 48.1066C410.455 58.2777 410.917 67.3043 413.712 75.062L419.357 73.0289ZM418.039 49.0841C419.264 41.732 421.424 35.2887 424.482 29.7159L419.222 26.8296C415.795 33.0749 413.44 40.1771 412.12 48.0977L418.039 49.0841ZM424.48 29.7205C427.597 24.0635 431.382 19.3156 435.824 15.4431L431.881 10.9205C426.868 15.2905 422.653 20.6031 419.225 26.8249L424.48 29.7205ZM435.817 15.4494C440.308 11.5588 445.253 8.62608 450.662 6.63321L448.588 1.00315C442.482 3.2527 436.912 6.56238 431.888 10.9143L435.817 15.4494ZM450.662 6.63321C456.083 4.63588 461.717 3.63636 467.58 3.63636V-2.36364C461.018 -2.36364 454.682 -1.24195 448.588 1.00315L450.662 6.63321ZM467.58 3.63636C472.655 3.63636 477.191 4.36724 481.221 5.7846L483.211 0.124495C478.453 -1.54907 473.232 -2.36364 467.58 -2.36364V3.63636ZM481.221 5.7846C485.28 7.21238 488.682 9.20218 491.478 11.7267L495.499 7.27335C492.053 4.16146 487.94 1.78761 483.211 0.124495L481.221 5.7846ZM491.478 11.7267C494.265 14.243 496.35 17.2169 497.755 20.6746L503.313 18.4163C501.567 14.1165 498.955 10.3933 495.499 7.27335L491.478 11.7267ZM497.762 20.6931C499.183 24.1241 499.822 27.9375 499.628 32.1811L505.622 32.4553C505.852 27.4262 505.097 22.7243 503.306 18.3978L497.762 20.6931ZM502.625 29.3182H479.852V35.3182H502.625V29.3182ZM25.2898 250L22.3303 249.509L21.7507 253H25.2898V250ZM40.7443 156.909V153.909H38.2013L37.7848 156.418L40.7443 156.909ZM63.2443 156.909L66.2041 157.399L66.7815 153.909H63.2443V156.909ZM57.0625 194.273L54.1027 193.783L53.5254 197.273H57.0625V194.273ZM93.7443 194.273V197.273H96.2888L96.7041 194.762L93.7443 194.273ZM99.9261 156.909V153.909H97.3817L96.9664 156.419L99.9261 156.909ZM122.381 156.909L125.34 157.4L125.92 153.909H122.381V156.909ZM106.926 250V253H109.469L109.886 250.491L106.926 250ZM84.4716 250L81.5117 249.511L80.9352 253H84.4716V250ZM90.6534 212.591L93.6133 213.08L94.1898 209.591H90.6534V212.591ZM53.9716 212.591V209.591H51.4267L51.0117 212.102L53.9716 212.591ZM47.7898 250V253H50.3347L50.7496 250.489L47.7898 250ZM28.2493 250.491L43.7038 157.4L37.7848 156.418L22.3303 249.509L28.2493 250.491ZM40.7443 159.909H63.2443V153.909H40.7443V159.909ZM60.2846 156.419L54.1027 193.783L60.0223 194.762L66.2041 157.399L60.2846 156.419ZM57.0625 197.273H93.7443V191.273H57.0625V197.273ZM96.7041 194.762L102.886 157.399L96.9664 156.419L90.7846 193.783L96.7041 194.762ZM99.9261 159.909H122.381V153.909H99.9261V159.909ZM119.421 156.418L103.967 249.509L109.886 250.491L125.34 157.4L119.421 156.418ZM106.926 247H84.4716V253H106.926V247ZM87.4314 250.489L93.6133 213.08L87.6936 212.102L81.5117 249.511L87.4314 250.489ZM90.6534 209.591H53.9716V215.591H90.6534V209.591ZM51.0117 212.102L44.8299 249.511L50.7496 250.489L56.9314 213.08L51.0117 212.102ZM47.7898 247H25.2898V253H47.7898V247ZM141.176 250V253H143.063L143.88 251.299L141.176 250ZM116.994 250L114.315 248.651L112.125 253H116.994V250ZM163.858 156.909V153.909H162.01L161.178 155.56L163.858 156.909ZM193.812 156.909L196.769 156.402L196.342 153.909H193.812V156.909ZM209.767 250V253H213.325L212.724 249.493L209.767 250ZM185.585 250L182.617 250.436L182.994 253H185.585V250ZM175.358 180.364L178.326 179.928L177.95 177.364H175.358V180.364ZM174.631 180.364V177.364H172.744L171.927 179.065L174.631 180.364ZM144.085 213.364V210.364H141.553L141.128 212.86L144.085 213.364ZM194.631 213.364L197.588 213.867L198.184 210.364H194.631V213.364ZM191.722 230.455V233.455H194.254L194.679 230.958L191.722 230.455ZM141.176 230.455L138.219 229.951L137.622 233.455H141.176V230.455ZM141.176 247H116.994V253H141.176V247ZM119.674 251.349L166.538 158.258L161.178 155.56L114.315 248.651L119.674 251.349ZM163.858 159.909H193.812V153.909H163.858V159.909ZM190.856 157.416L206.81 250.507L212.724 249.493L196.769 156.402L190.856 157.416ZM209.767 247H185.585V253H209.767V247ZM188.553 249.564L178.326 179.928L172.39 180.8L182.617 250.436L188.553 249.564ZM175.358 177.364H174.631V183.364H175.358V177.364ZM171.927 179.065L138.472 248.701L143.88 251.299L177.335 181.663L171.927 179.065ZM144.085 216.364H194.631V210.364H144.085V216.364ZM191.673 212.86L188.764 229.951L194.679 230.958L197.588 213.867L191.673 212.86ZM191.722 227.455H141.176V233.455H191.722V227.455ZM144.134 230.958L147.043 213.867L141.128 212.86L138.219 229.951L144.134 230.958ZM309.688 190.636V193.636H312.514L312.682 190.815L309.688 190.636ZM287.233 190.636L284.237 190.483L284.075 193.636H287.233V190.636ZM286.551 184.318L283.683 185.197L283.687 185.21L286.551 184.318ZM283.824 179.5L281.606 181.52L281.618 181.533L281.629 181.545L283.824 179.5ZM279.188 176.409L278.129 179.216L279.188 176.409ZM250.369 188.955L252.957 190.472V190.472L250.369 188.955ZM244.96 204.773L242.001 204.277L241.999 204.291L241.997 204.304L244.96 204.773ZM245.006 219.636L242.091 220.348L242.094 220.359L242.097 220.369L245.006 219.636ZM250.551 228.591L248.764 231.001L248.773 231.007L248.782 231.014L250.551 228.591ZM268.324 230.591L269.123 233.483L269.135 233.479L269.148 233.475L268.324 230.591ZM274.642 227.727L276.297 230.23L274.642 227.727ZM279.506 223.227L277.14 221.383L277.135 221.388L279.506 223.227ZM282.733 217.273V214.273H280.599L279.899 216.289L282.733 217.273ZM305.369 217.273L308.263 218.066L309.302 214.273H305.369V217.273ZM299.824 229.5L297.291 227.893L297.287 227.898L299.824 229.5ZM290.188 240.455L288.253 238.162L290.188 240.455ZM276.688 248.318L275.611 245.518L276.688 248.318ZM237.415 245.5L235.829 248.047L235.835 248.05L237.415 245.5ZM224.006 228.773L221.194 229.818L221.196 229.825L221.199 229.832L224.006 228.773ZM222.46 202.136L219.5 201.647L219.499 201.654L222.46 202.136ZM232.324 176.636L229.883 174.892L229.878 174.899L232.324 176.636ZM250.324 160.955L248.982 158.271L248.978 158.274L250.324 160.955ZM288.688 158L287.722 160.84L287.733 160.844L287.744 160.848L288.688 158ZM300.551 164.818L298.514 167.02L298.519 167.025L298.525 167.03L300.551 164.818ZM307.778 175.773L304.959 176.798L304.962 176.807L304.965 176.815L307.778 175.773ZM309.688 187.636H287.233V193.636H309.688V187.636ZM290.229 190.79C290.364 188.149 290.117 185.678 289.415 183.426L283.687 185.21C284.137 186.655 284.344 188.397 284.237 190.483L290.229 190.79ZM289.419 183.439C288.721 181.16 287.595 179.146 286.019 177.455L281.629 181.545C282.538 182.52 283.23 183.718 283.683 185.197L289.419 183.439ZM286.041 177.48C284.458 175.741 282.505 174.454 280.246 173.602L278.129 179.216C279.567 179.758 280.705 180.531 281.606 181.52L286.041 177.48ZM280.246 173.602C277.988 172.751 275.465 172.364 272.733 172.364V178.364C274.91 178.364 276.69 178.674 278.129 179.216L280.246 173.602ZM272.733 172.364C267.513 172.364 262.709 173.668 258.396 176.304L261.525 181.423C264.848 179.393 268.559 178.364 272.733 178.364V172.364ZM258.396 176.304C254.1 178.929 250.572 182.676 247.781 187.437L252.957 190.472C255.318 186.445 258.184 183.465 261.525 181.423L258.396 176.304ZM247.781 187.437C244.984 192.208 243.079 197.844 242.001 204.277L247.919 205.268C248.902 199.399 250.603 194.489 252.957 190.472L247.781 187.437ZM241.997 204.304C241.022 210.467 240.994 215.855 242.091 220.348L247.92 218.924C247.078 215.478 247.019 210.957 247.923 205.241L241.997 204.304ZM242.097 220.369C243.227 224.858 245.396 228.503 248.764 231.001L252.338 226.181C250.312 224.679 248.784 222.354 247.915 218.904L242.097 220.369ZM248.782 231.014C252.106 233.441 256.193 234.545 260.824 234.545V228.545C257.152 228.545 254.39 227.68 252.32 226.168L248.782 231.014ZM260.824 234.545C263.757 234.545 266.529 234.199 269.123 233.483L267.525 227.699C265.513 228.255 263.285 228.545 260.824 228.545V234.545ZM269.148 233.475C271.753 232.731 274.143 231.654 276.297 230.23L272.987 225.225C271.383 226.286 269.561 227.117 267.5 227.706L269.148 233.475ZM276.297 230.23C278.445 228.809 280.309 227.086 281.876 225.066L277.135 221.388C275.975 222.884 274.596 224.161 272.987 225.225L276.297 230.23ZM281.872 225.072C283.471 223.02 284.704 220.743 285.567 218.257L279.899 216.289C279.247 218.166 278.328 219.859 277.14 221.383L281.872 225.072ZM282.733 220.273H305.369V214.273H282.733V220.273ZM302.476 216.48C301.443 220.247 299.728 224.051 297.291 227.893L302.357 231.107C305.072 226.828 307.053 222.48 308.263 218.066L302.476 216.48ZM297.287 227.898C294.916 231.652 291.912 235.074 288.253 238.162L292.122 242.747C296.221 239.289 299.641 235.408 302.36 231.102L297.287 227.898ZM288.253 238.162C284.65 241.202 280.445 243.659 275.611 245.518L277.764 251.118C283.172 249.038 287.968 246.253 292.122 242.747L288.253 238.162ZM275.611 245.518C270.879 247.338 265.553 248.273 259.597 248.273V254.273C266.185 254.273 272.254 253.238 277.764 251.118L275.611 245.518ZM259.597 248.273C251.481 248.273 244.655 246.456 238.995 242.95L235.835 248.05C242.599 252.241 250.561 254.273 259.597 254.273V248.273ZM239 242.953C233.419 239.479 229.355 234.447 226.812 227.713L221.199 229.832C224.172 237.705 229.047 243.824 235.829 248.047L239 242.953ZM226.818 227.727C224.324 221.023 223.78 212.702 225.421 202.618L219.499 201.654C217.747 212.419 218.233 221.856 221.194 229.818L226.818 227.727ZM225.42 202.625C227.028 192.893 230.173 184.842 234.769 178.374L229.878 174.899C224.656 182.249 221.226 191.198 219.5 201.647L225.42 202.625ZM234.764 178.381C239.442 171.838 245.077 166.946 251.67 163.636L248.978 158.274C241.449 162.054 235.084 167.617 229.883 174.892L234.764 178.381ZM251.665 163.638C258.334 160.303 265.435 158.636 273.006 158.636V152.636C264.516 152.636 256.495 154.515 248.982 158.271L251.665 163.638ZM273.006 158.636C278.556 158.636 283.449 159.388 287.722 160.84L289.653 155.16C284.653 153.46 279.092 152.636 273.006 152.636V158.636ZM287.744 160.848C292.051 162.274 295.62 164.342 298.514 167.02L302.589 162.616C298.998 159.294 294.658 156.817 289.631 155.152L287.744 160.848ZM298.525 167.03C301.394 169.658 303.54 172.896 304.959 176.798L310.598 174.747C308.865 169.983 306.193 165.918 302.577 162.606L298.525 167.03ZM304.965 176.815C306.4 180.686 307.006 185.212 306.693 190.457L312.682 190.815C313.035 184.909 312.369 179.526 310.591 174.73L304.965 176.815ZM312.79 250L309.83 249.509L309.251 253H312.79V250ZM328.244 156.909V153.909H325.701L325.285 156.418L328.244 156.909ZM350.744 156.909L353.704 157.398L354.28 153.909H350.744V156.909ZM344.244 196.273L341.284 195.784L340.708 199.273H344.244V196.273ZM345.472 196.273V199.273H346.762L347.65 198.335L345.472 196.273ZM382.744 156.909V153.909H381.453L380.566 154.846L382.744 156.909ZM409.244 156.909L411.411 158.984L416.269 153.909H409.244V156.909ZM369.472 198.455L367.305 196.38L365.864 197.885L366.77 199.76L369.472 198.455ZM394.381 250V253H399.162L397.082 248.695L394.381 250ZM367.472 250L364.748 251.258L365.553 253H367.472V250ZM350.562 213.409L353.286 212.151L351.447 208.171L348.403 211.327L350.562 213.409ZM339.472 224.909L337.312 222.827L336.666 223.497L336.512 224.416L339.472 224.909ZM335.29 250V253H337.831L338.249 250.493L335.29 250ZM315.749 250.491L331.204 157.4L325.285 156.418L309.83 249.509L315.749 250.491ZM328.244 159.909H350.744V153.909H328.244V159.909ZM347.784 156.42L341.284 195.784L347.204 196.761L353.704 157.398L347.784 156.42ZM344.244 199.273H345.472V193.273H344.244V199.273ZM347.65 198.335L384.923 158.972L380.566 154.846L343.293 194.21L347.65 198.335ZM382.744 159.909H409.244V153.909H382.744V159.909ZM407.077 154.835L367.305 196.38L371.639 200.529L411.411 158.984L407.077 154.835ZM366.77 199.76L391.68 251.305L397.082 248.695L372.173 197.149L366.77 199.76ZM394.381 247H367.472V253H394.381V247ZM370.195 248.742L353.286 212.151L347.839 214.668L364.748 251.258L370.195 248.742ZM348.403 211.327L337.312 222.827L341.631 226.992L352.722 215.492L348.403 211.327ZM336.512 224.416L332.331 249.507L338.249 250.493L342.431 225.402L336.512 224.416ZM335.29 247H312.79V253H335.29V247ZM462.71 185L459.718 184.788L459.49 188H462.71V185ZM459.983 177.045L457.945 179.247L457.954 179.255L457.962 179.262L459.983 177.045ZM442.892 175.364L443.891 178.193L443.909 178.186L443.927 178.179L442.892 175.364ZM438.028 178.455L440.251 180.47L440.262 180.457L440.273 180.444L438.028 178.455ZM435.801 183L438.743 183.588L438.75 183.553L438.756 183.518L435.801 183ZM436.028 186.636L438.814 185.522V185.522L436.028 186.636ZM438.256 189.455L436.423 191.83L436.439 191.842L436.456 191.855L438.256 189.455ZM442.301 191.591L441.242 194.398L441.251 194.401L441.259 194.404L442.301 191.591ZM447.801 193.182L448.496 190.263L448.476 190.259L448.457 190.254L447.801 193.182ZM455.438 195L454.743 197.918L454.759 197.922L454.776 197.926L455.438 195ZM466.938 199L465.566 201.668L465.581 201.676L465.596 201.683L466.938 199ZM474.892 204.955L472.629 206.924L472.635 206.931L472.642 206.938L474.892 204.955ZM479.074 212.909L481.983 212.175L481.983 212.175L479.074 212.909ZM479.256 223L476.298 222.495L476.297 222.503L476.296 222.512L479.256 223ZM472.301 238.136L470.038 236.167L470.03 236.176L472.301 238.136ZM458.028 247.818L456.959 245.015L456.954 245.017L458.028 247.818ZM417.847 247.682L416.643 250.43L416.652 250.434L416.661 250.438L417.847 247.682ZM406.119 237L408.792 235.638L406.119 237ZM404.165 219V216H401.593L401.2 218.541L404.165 219ZM425.665 219L428.646 219.331L429.017 216H425.665V219ZM426.801 226.5L424.167 227.937L424.176 227.952L424.184 227.967L426.801 226.5ZM431.983 231.045L430.771 233.79L431.983 231.045ZM448.392 231.364L447.388 228.537L447.376 228.541L448.392 231.364ZM453.892 227.955L451.726 225.879L451.715 225.891L451.703 225.903L453.892 227.955ZM456.438 222.955L453.483 222.436L453.479 222.456L453.476 222.477L456.438 222.955ZM455.574 218.455L453.078 220.119L453.091 220.139L453.105 220.159L455.574 218.455ZM451.21 215.136L449.95 217.859L449.958 217.863L449.966 217.866L451.21 215.136ZM443.21 212.591L442.499 215.505L442.519 215.51L442.54 215.515L443.21 212.591ZM433.892 210.318L433.181 213.233L433.181 213.233L433.892 210.318ZM416.392 201.318L414.223 203.391L414.231 203.399L416.392 201.318ZM412.21 184.545L409.251 184.05L409.249 184.063L412.21 184.545ZM419.392 169.364L417.149 167.372L417.141 167.38L419.392 169.364ZM433.983 159.273L435.114 162.051L435.122 162.048L433.983 159.273ZM471.665 159.318L470.323 162.001L470.333 162.006L470.343 162.011L471.665 159.318ZM482.347 169.591L479.656 170.918L479.661 170.929L479.667 170.94L482.347 169.591ZM484.256 185V188H486.814L487.218 185.473L484.256 185ZM465.703 185.212C465.993 181.106 464.899 177.468 462.004 174.829L457.962 179.262C459.188 180.38 459.912 182.046 459.718 184.788L465.703 185.212ZM462.021 174.844C459.188 172.222 455.072 171.227 450.347 171.227V177.227C454.409 177.227 456.717 178.111 457.945 179.247L462.021 174.844ZM450.347 171.227C447.192 171.227 444.337 171.636 441.857 172.548L443.927 178.179C445.568 177.576 447.683 177.227 450.347 177.227V171.227ZM441.894 172.535C439.461 173.393 437.371 174.673 435.783 176.465L440.273 180.444C441.049 179.569 442.202 178.788 443.891 178.193L441.894 172.535ZM435.806 176.439C434.245 178.161 433.248 180.194 432.846 182.482L438.756 183.518C438.961 182.351 439.448 181.355 440.251 180.47L435.806 176.439ZM432.859 182.412C432.498 184.221 432.56 186.042 433.243 187.751L438.814 185.522C438.649 185.109 438.559 184.506 438.743 183.588L432.859 182.412ZM433.243 187.751C433.899 189.389 435.012 190.741 436.423 191.83L440.088 187.079C439.378 186.532 439.007 186.005 438.814 185.522L433.243 187.751ZM436.456 191.855C437.823 192.88 439.436 193.716 441.242 194.398L443.36 188.784C441.954 188.253 440.87 187.666 440.056 187.055L436.456 191.855ZM441.259 194.404C443.043 195.065 445.008 195.631 447.146 196.109L448.457 190.254C446.533 189.824 444.832 189.329 443.343 188.778L441.259 194.404ZM447.106 196.1L454.743 197.918L456.132 192.082L448.496 190.263L447.106 196.1ZM454.776 197.926C459.011 198.883 462.595 200.141 465.566 201.668L468.309 196.332C464.795 194.526 460.712 193.117 456.099 192.074L454.776 197.926ZM465.596 201.683C468.581 203.176 470.899 204.935 472.629 206.924L477.155 202.985C474.825 200.307 471.84 198.097 468.279 196.317L465.596 201.683ZM472.642 206.938C474.354 208.88 475.524 211.103 476.165 213.644L481.983 212.175C481.109 208.715 479.491 205.635 477.142 202.971L472.642 206.938ZM476.165 213.644C476.8 216.159 476.88 219.091 476.298 222.495L482.213 223.505C482.904 219.455 482.863 215.659 481.983 212.175L476.165 213.644ZM476.296 222.512C475.41 227.88 473.315 232.402 470.038 236.167L474.564 240.106C478.621 235.446 481.162 229.878 482.216 223.488L476.296 222.512ZM470.03 236.176C466.759 239.965 462.435 242.926 456.959 245.015L459.098 250.621C465.379 248.225 470.571 244.732 474.572 240.097L470.03 236.176ZM456.954 245.017C451.52 247.101 445.094 248.182 437.619 248.182V254.182C445.66 254.182 452.84 253.02 459.102 250.619L456.954 245.017ZM437.619 248.182C430.148 248.182 423.984 247.056 419.032 244.926L416.661 250.438C422.557 252.974 429.576 254.182 437.619 254.182V248.182ZM419.051 244.934C414.222 242.818 410.869 239.713 408.792 235.638L403.446 238.362C406.218 243.802 410.683 247.818 416.643 250.43L419.051 244.934ZM408.792 235.638C406.743 231.617 406.069 226.306 407.129 219.459L401.2 218.541C400.018 226.179 400.647 232.868 403.446 238.362L408.792 235.638ZM404.165 222H425.665V216H404.165V222ZM422.683 218.669C422.304 222.084 422.7 225.246 424.167 227.937L429.435 225.063C428.72 223.754 428.359 221.916 428.646 219.331L422.683 218.669ZM424.184 227.967C425.659 230.597 427.914 232.528 430.771 233.79L433.195 228.301C431.385 227.502 430.186 226.403 429.418 225.033L424.184 227.967ZM430.771 233.79C433.581 235.031 436.835 235.591 440.438 235.591V229.591C437.434 229.591 435.051 229.121 433.195 228.301L430.771 233.79ZM440.438 235.591C443.73 235.591 446.739 235.147 449.408 234.186L447.376 228.541C445.5 229.216 443.206 229.591 440.438 229.591V235.591ZM449.396 234.191C452.05 233.248 454.324 231.88 456.081 230.006L451.703 225.903C450.733 226.938 449.34 227.843 447.388 228.537L449.396 234.191ZM456.058 230.03C457.847 228.163 458.993 225.948 459.399 223.432L453.476 222.477C453.276 223.718 452.725 224.837 451.726 225.879L456.058 230.03ZM459.392 223.473C459.812 221.082 459.43 218.76 458.043 216.75L453.105 220.159C453.475 220.695 453.669 221.372 453.483 222.436L459.392 223.473ZM458.07 216.79C456.797 214.881 454.795 213.473 452.455 212.407L449.966 217.866C451.747 218.678 452.654 219.483 453.078 220.119L458.07 216.79ZM452.47 212.414C450.181 211.355 447.294 210.45 443.881 209.667L442.54 215.515C445.732 216.247 448.179 217.039 449.95 217.859L452.47 212.414ZM443.921 209.676L434.603 207.404L433.181 213.233L442.499 215.505L443.921 209.676ZM434.603 207.404C427.254 205.61 422.004 202.82 418.553 199.237L414.231 203.399C418.72 208.059 425.136 211.269 433.181 213.233L434.603 207.404ZM418.561 199.245C415.436 195.976 414.128 191.422 415.171 185.028L409.249 184.063C407.989 191.79 409.47 198.418 414.223 203.391L418.561 199.245ZM415.169 185.041C416.048 179.796 418.201 175.253 421.643 171.347L417.141 167.38C412.947 172.141 410.312 177.719 409.251 184.05L415.169 185.041ZM421.635 171.356C425.15 167.398 429.62 164.288 435.114 162.051L432.852 156.494C426.588 159.045 421.331 162.663 417.149 167.372L421.635 171.356ZM435.122 162.048C440.632 159.788 446.74 158.636 453.483 158.636V152.636C446.045 152.636 439.153 153.909 432.844 156.497L435.122 162.048ZM453.483 158.636C460.37 158.636 465.94 159.81 470.323 162.001L473.006 156.635C467.571 153.917 461.02 152.636 453.483 152.636V158.636ZM470.343 162.011C474.76 164.179 477.801 167.156 479.656 170.918L485.037 168.264C482.529 163.177 478.448 159.306 472.987 156.625L470.343 162.011ZM479.667 170.94C481.541 174.661 482.155 179.136 481.293 184.527L487.218 185.473C488.236 179.106 487.577 173.308 485.026 168.242L479.667 170.94ZM484.256 182H462.71V188H484.256V182Z" fill="#D8DB4A"/>
</g>
<defs>
<filter id="filter0_d_15_101" x="0.65918" y="0.63636" width="506.284" height="258.636" filterUnits="userSpaceOnUse" color-interpolation-filters="sRGB">
<feFlood flood-opacity="0" result="BackgroundImageFix"/>
<feColorMatrix in="SourceAlpha" type="matrix" values="0 0 0 0 0 0 0 0 0 0 0 0 0 0 0 0 0 0 127 0" result="hardAlpha"/>
<feOffset dy="4"/>
<feGaussianBlur stdDeviation="2"/>
<feComposite in2="hardAlpha" operator="out"/>
<feColorMatrix type="matrix" values="0 0 0 0 0 0 0 0 0 0 0 0 0 0 0 0 0 0 0.25 0"/>
<feBlend mode="normal" in2="BackgroundImageFix" result="effect1_dropShadow_15_101"/>
<feBlend mode="normal" in="SourceGraphic" in2="effect1_dropShadow_15_101" result="shape"/>
</filter>
</defs>
</svg>
